<svg id="svg" version="1.1" viewBox="0 0 300 300" width="300" height="300" xmlns="http://www.w3.org/2000/svg"><svg xmlns="http://www.w3.org/2000/svg"><defs><clipPath id="clip-1"><rect x="0" y="0" transform="scale(0.14648,0.14648)" width="2048" height="2048" fill="none"/></clipPath></defs><g clip-path="url(#clip-1)" fill="none" fill-rule="nonzero" stroke="none" stroke-width="1" stroke-linecap="butt" stroke-linejoin="miter" stroke-miterlimit="10" stroke-dasharray="" stroke-dashoffset="0" font-family="none" font-weight="none" font-size="none" text-anchor="none" style="mix-blend-mode: normal"><path d="M147.89795,89.86406c5.37451,-0.07954 10.74023,0.43521 16.00049,1.53457c12.47607,2.65459 23.96338,8.7394 33.16846,17.56948c1.63477,1.5665 3.84521,3.61553 5.03174,5.498c3.67969,5.84033 1.10303,12.99463 -4.48535,16.38091c-1.90576,1.16147 -4.10156,1.76221 -6.33398,1.7335c-5.54004,-0.04014 -7.34619,-2.41904 -10.87354,-6.06562c-1.08105,-1.11812 -2.82275,-2.48218 -4.09424,-3.40825c-4.83691,-3.54844 -10.33594,-6.08921 -16.17334,-7.47158c-11.9165,-2.86289 -24.48369,-0.79116 -34.85068,5.74482c-9.66255,5.9647 -16.74976,16.26768 -19.29155,27.2959c-2.66997,11.40967 -0.65215,23.41553 5.60171,33.3252c6.1437,9.66064 15.82676,16.5293 26.97393,19.13379c21.28975,4.79736 44.91475,-6.05273 49.87324,-28.49707l-20.46973,0.00146c-3.40137,0.00439 -7.51025,0.19922 -10.84277,-0.11572c-8.61475,-0.81738 -11.77793,-10.85596 -7.30664,-17.71143c0.09082,-0.11133 0.18311,-0.22266 0.27539,-0.33252c1.88818,-2.23096 4.43262,-3.65625 7.35352,-3.80273c3.00732,-0.15234 6.22559,-0.08057 9.25342,-0.07764l17.25146,0.01025l13.65967,-0.01025c4.42383,0 9.01758,-0.65332 12.54639,2.44336c1.91895,1.68311 3.18896,4.32275 3.20801,6.87158c0.26074,35.51074 -26.18848,63.24902 -61.53369,65.5459c-17.47661,1.03418 -34.6645,-4.81201 -47.88735,-16.2876c-13.72295,-11.78174 -22.10186,-28.61133 -23.23403,-46.6626c-1.06084,-18.06357 5.06558,-35.81353 17.04258,-49.37695c10.61733,-12.07808 25.15225,-20.02749 41.0499,-22.45093c3.00132,-0.47051 6.05903,-0.6438 9.08701,-0.81782z" fill="#101242"/><path d="M247.21143,49.68252c13.39746,-0.24126 24.46436,10.40479 24.74121,23.80151c0.27686,13.39673 -10.33887,24.49131 -23.73486,24.80435c-13.44727,0.31436 -24.59326,-10.35117 -24.87158,-23.79873c-0.27832,-13.44771 10.41797,-24.56499 23.86523,-24.80713z" fill="#fe6901"/><path d="M46.14551,49.70874c13.40771,-0.20698 24.44854,10.48667 24.67017,23.89409c0.22148,13.40757 -10.46001,24.46011 -23.86729,24.69624c-13.42808,0.23657 -24.50127,-10.46514 -24.72319,-23.89336c-0.22178,-13.42822 10.4918,-24.48984 23.92031,-24.69697z" fill="#5336f4"/><path d="M145.14976,6.22819c13.12075,-1.05896 24.61978,8.71204 25.69204,21.83221c1.07227,13.12031 -8.68652,24.62886 -21.80566,25.71489c-13.13804,1.0875 -24.66709,-8.68901 -25.74111,-21.82822c-1.07402,-13.13936 8.71421,-24.65836 21.85474,-25.71888z" fill="#5336f4"/><path d="M46.32964,208.9248c12.84287,-0.65918 23.79727,9.19922 24.49102,22.04004c0.69375,12.84082 -9.13491,23.82129 -21.97397,24.54932c-12.88784,0.73096 -23.91943,-9.14209 -24.61582,-22.03271c-0.69639,-12.88916 9.20713,-23.89453 22.09878,-24.55664z" fill="#5336f4"/><path d="M243.74854,209.07275c12.79248,-1.62305 24.47314,7.4458 26.06982,20.24121c1.59814,12.79541 -7.49561,24.45703 -20.29395,26.02734c-12.76172,1.56592 -24.38232,-7.49414 -25.97461,-20.25146c-1.59229,-12.75879 7.44434,-24.39844 20.19873,-26.01709z" fill="#fe6901"/><path d="M124.62407,268.18652c2.81719,-11.58691 13.93711,-19.17041 25.75239,-17.56201c11.81689,1.6084 20.50488,11.88867 20.12256,23.80664c-0.38379,11.91943 -9.71338,21.61963 -21.60791,22.46777c-11.89438,0.84668 -22.50483,-7.43408 -24.57319,-19.17773c-0.55737,-3.16553 -0.45308,-6.41162 0.30615,-9.53467z" fill="#5336f4"/><path d="M264.17432,101.20737c0.93896,0.01055 1.2832,0.39419 1.70947,1.2416c1.55859,3.08672 2.72168,6.34775 3.9668,9.56455c9.07178,23.81426 10.22168,49.91909 3.27979,74.43911c-0.84668,2.96484 -6.08643,18.99023 -8.35986,20.25c-0.90381,-0.01172 -4.92187,-2.45654 -6.54932,-3.09668c-6.20068,-2.39355 -7.69189,-0.32666 -4.62451,-7.05762c4.45605,-9.7793 7.56738,-21.19336 8.5459,-31.90576c1.18066,-12.98877 0.05566,-26.08403 -3.32373,-38.68052c-1.08691,-4.13379 -2.47705,-8.18159 -4.16016,-12.11045c-0.64746,-1.5479 -2.92822,-6.07192 -2.81543,-7.53135c0.97119,-0.75615 5.05225,-1.60386 6.6416,-2.25806c2.53711,-1.04414 3.36035,-1.44565 5.68945,-2.85483z" fill="#fe6901"/><path d="M29.49639,101.17559c1.56577,0.48047 2.95679,1.66978 4.45313,2.28179c2.52627,1.03315 5.17075,1.77803 7.82373,2.37832c0.30688,0.06943 0.44312,0.31392 0.61172,0.548c-0.17461,1.69878 -2.1561,5.59995 -2.84209,7.43496c-0.8981,2.4019 -1.87266,4.83604 -2.65283,7.29419c-5.79961,17.89775 -6.81035,37.00239 -2.93145,55.41255c1.17554,5.38916 2.7895,10.67432 4.82578,15.80127c1.09556,2.72314 2.83813,6.06885 3.50625,8.86816c0.14282,0.59912 -4.72617,1.83252 -5.40381,2.05078c-1.51919,0.54492 -6.46934,3.50391 -7.58188,3.38086c-0.28682,-0.03223 -0.43535,-0.24609 -0.59312,-0.46875c-1.25581,-1.77686 -2.92427,-6.51416 -3.84888,-8.81396c-8.00229,-20.11816 -10.24636,-42.06592 -6.48091,-63.38716c1.66846,-9.51636 4.42573,-18.80918 8.21763,-27.69551c0.69478,-1.62187 1.54189,-4.14771 2.89673,-5.0855z" fill="#5336f4"/><path d="M216.40869,243.7251c0.55811,-0.04248 1.05762,-0.08057 1.38428,0.49072c0.58887,1.03857 1.12207,2.10938 1.69336,3.1582c0.83203,1.50439 1.77686,2.94287 2.82422,4.30371c0.54199,0.71191 3.00293,3.03809 2.34082,3.83496c-1.13818,1.37109 -3.30176,2.64844 -4.7959,3.67822c-11.19141,7.71973 -22.8208,12.83057 -35.75977,16.84131c-1.46338,0.4043 -4.34326,1.54102 -5.54736,0.60059c-0.60205,-0.96826 -0.36182,-4.02686 -0.47754,-5.09033c-1.02979,-9.54785 -4.81787,-7.55273 4.79004,-10.47656c12.21826,-3.71777 23.0918,-9.81885 33.54785,-17.34082z" fill="#fe6901"/><path d="M77.00464,243.75146c1.45518,-0.03955 3.24946,1.66406 4.47158,2.54004c1.60708,1.15576 3.25518,2.25293 4.94106,3.29004c6.36606,3.87891 13.12998,7.32129 20.15581,9.84375c2.03789,0.73242 10.27632,3.15674 11.13896,3.85254c0.50024,1.05469 -0.15645,1.70654 -0.48223,2.82715c-0.42466,1.47803 -0.72056,2.98975 -0.88433,4.51758c-0.63076,5.71729 1.52886,7.22168 -4.91807,5.7627c-13.246,-3.94336 -25.4354,-9.21387 -36.82485,-17.1167c-4.679,-3.24756 -7.27046,-3.12744 -2.03862,-8.23389c1.37065,-1.3374 3.20376,-6.32666 4.44067,-7.2832z" fill="#5336f4"/><path d="M179.41406,30.9249c1.39893,-0.07031 4.87061,0.91743 6.31494,1.36934c11.98975,3.62183 23.36719,9.02021 33.75586,16.01514c1.14111,0.76318 3.9082,2.38799 4.48535,3.49043c-0.22559,1.1458 -2.5415,3.89048 -3.34131,5.18306c-0.90967,1.45723 -1.69336,2.99063 -2.33936,4.58291c-0.20068,0.52793 -0.88477,2.45977 -1.46338,2.28018c-2.02295,-0.62842 -5.4126,-3.32739 -7.19824,-4.50059c-7.25977,-4.73877 -15.07031,-8.57417 -23.25879,-11.42153c-1.99805,-0.70107 -4.00781,-1.37124 -6.02637,-2.0105c-0.97705,-0.30015 -3.49219,-0.92241 -4.23779,-1.33184c-0.21094,-0.33706 -0.36035,-0.56338 -0.28271,-0.97559c0.30762,-1.64648 1.23193,-3.35596 1.6626,-4.96992c0.60205,-2.25542 0.6416,-4.63945 1.22168,-6.88462c0.08789,-0.33618 0.44092,-0.61436 0.70752,-0.82646z" fill="#fe6901"/><path d="M114.03545,30.92886c1.79678,-0.12964 1.50688,1.74624 1.67065,3.00381c0.25371,1.92466 0.65977,3.82603 1.21436,5.68638c0.47139,1.57295 1.31191,3.32666 1.39438,4.92173c-0.67617,0.5603 -6.09375,1.94692 -7.32334,2.33481c-4.80527,1.49224 -9.48896,3.35127 -14.00947,5.56099c-3.98145,1.91704 -7.85552,4.04985 -11.60479,6.38877c-2.33159,1.46938 -4.92085,3.50508 -7.31484,4.904c-0.7144,0.41748 -1.43423,-0.3293 -1.7061,-1.08179c-1.0062,-3.13535 -2.66587,-5.82056 -4.63711,-8.42153c-0.39507,-0.52134 -1.45708,-1.93579 -1.35937,-2.54121c0.75952,-1.09512 3.86206,-2.98579 5.12329,-3.81943c11.75991,-7.85933 24.80903,-13.59185 38.55234,-16.93652z" fill="#5336f4"/><path d="M124.31792,277.72119c-0.71279,-2.07568 -0.25679,-7.24805 0.30615,-9.53467c-0.75923,3.12305 -0.86353,6.36914 -0.30615,9.53467z" fill-opacity="0.98824" fill="#4628eb"/></g></svg></svg>