<svg id="svg" version="1.1" viewBox="0 0 300 300" width="300" height="300" xmlns="http://www.w3.org/2000/svg"><svg xmlns="http://www.w3.org/2000/svg"><defs><clipPath id="clip-1"><rect x="0" y="0" transform="scale(0.14648,0.14648)" width="2048" height="2048" fill="none"/></clipPath></defs><g clip-path="url(#clip-1)" fill="none" fill-rule="nonzero" stroke="none" stroke-width="1" stroke-linecap="butt" stroke-linejoin="miter" stroke-miterlimit="10" stroke-dasharray="" stroke-dashoffset="0" font-family="none" font-weight="none" font-size="none" text-anchor="none" style="mix-blend-mode: normal"><path d="M71.90215,88.09512c7.30488,-0.77695 18.02505,1.84687 24.75103,4.57515c11.43311,4.6377 22.15503,11.4126 33.07954,17.13735c7.19561,3.77051 14.16929,8.02603 21.82002,10.90635c2.96924,1.11943 5.85791,2.50869 8.8623,3.54946c8.7041,3.13433 17.41699,6.01685 26.30273,8.58135c0.59033,0.17036 1.16455,0.49351 1.59082,0.94087c0.09521,0.71177 -0.51416,1.32144 -1.13672,1.56841c-11.36865,4.50557 -23.15479,10.69219 -35.56494,11.4394c-7.31631,0.30176 -14.19917,-2.26436 -20.91343,-4.49546c-16.62349,-5.52378 -34.73555,-15.05435 -52.49604,-9.44209c-24.62563,7.78154 -30.12759,35.81499 -22.95469,57.80083c5.63247,17.06104 17.88193,31.14404 33.99756,39.08789c15.61216,7.771 33.65493,9.08643 50.22935,3.66357c10.62114,-3.57861 21.59575,-11.77588 26.69194,-21.98437c0.68701,-1.37549 2.18262,-4.26709 1.66846,-5.77295c-0.65039,-0.61816 -2.17676,-0.55664 -3.06885,-0.55811c-3.67383,-0.01172 -7.34766,0 -11.02148,0.00146l-22.20396,0.00439c-3.23892,-0.00439 -6.48413,0.00439 -9.72554,0.00146c-1.08735,-0.00146 -1.82432,-0.12305 -2.61123,-0.96533c-0.34365,-0.36768 -0.49673,-1.50586 -0.5124,-2.02441c-0.1147,-3.87305 -0.04644,-7.76367 -0.03721,-11.64111c0.0126,-5.24121 -0.21387,-10.6582 0.06313,-15.88916c0.79292,-1.45312 1.39907,-1.65674 3.0271,-1.67578c1.66875,-0.01758 3.34453,0.06592 5.01343,0.05859l15.36211,-0.05566l46.01616,-0.00146l14.24854,-0.04395c2.66309,-0.00586 9.5332,-0.24756 11.57666,0.4248c0.59912,0.53467 1.10889,1.62744 1.10303,2.42139c-0.38965,52.19971 -36.44531,95.42432 -88.97944,100.72266c-27.53364,2.93701 -55.10054,-5.23975 -76.57793,-22.7168c-20.51851,-16.83398 -34.24072,-40.53369 -38.62441,-66.70898c-0.23442,-1.47217 -0.81451,-4.16455 -0.91812,-5.44775c-0.64151,-7.94385 -0.76942,-16.10596 0.03223,-24.03662c0.16061,-1.58789 0.76031,-4.2627 1.03576,-5.98096c0.40406,-2.521 0.9617,-5.68784 1.56895,-8.17134c3.08895,-12.68379 9.00018,-24.50713 17.29295,-34.58921c7.97168,-9.61289 20.57651,-17.22217 32.80181,-19.66509c3.20801,-0.64102 5.9981,-0.71353 9.21079,-1.0188z" fill="#5233ea"/><path d="M213.52441,87.94541c5.45801,-0.65933 16.10596,1.44521 21.45996,3.33955c2.41553,0.90718 4.7666,2.08828 7.05762,3.26895c22.50879,11.59922 33.95801,36.30513 37.23779,60.38262c3.10254,21.94336 -0.74561,44.30713 -11.00537,63.95068c-16.89697,32.86377 -49.60693,55.94971 -87.16846,57.87305c-1.21289,0.06152 -4.2583,0.48779 -4.51025,-1.03857c0.59033,-1.96729 6.02344,-4.43701 7.9834,-6.23145c2.50635,-1.77686 6.11572,-4.59229 8.41992,-6.66357c18.85107,-16.76367 32.66309,-38.44189 39.88916,-62.61035c2.28516,-7.66553 4.05615,-15.76611 4.43115,-23.80371c0.98584,-16.57617 -5.354,-33.95464 -21.00732,-41.68257c-6.0542,-2.98857 -14.21484,-5.19316 -20.77734,-7.32012l-31.53955,-10.30898c-2.146,-0.71602 -7.45312,-2.06719 -9.19922,-3.67939c-0.22559,-0.20757 -0.11426,-0.60454 -0.06152,-0.8666c1.10889,-0.75396 2.75684,-1.49004 3.9668,-2.13223c5.91064,-3.13506 11.74658,-6.38276 17.56201,-9.69185c1.27588,-0.72261 2.72314,-1.28438 3.99316,-2.00024c7.17334,-4.0418 14.76709,-7.48784 22.83252,-9.29253c3.47461,-0.77783 6.90234,-1.08237 10.43555,-1.49268z" fill="#fd6400"/><path d="M215.19434,8.31604c19.05615,-0.66201 35.04199,14.24666 35.7085,33.30252c0.6665,19.05586 -14.23828,35.04536 -33.29297,35.71685c-19.06348,0.67178 -35.05957,-14.23931 -35.72607,-33.3019c-0.66797,-19.06245 14.24854,-35.05523 33.31055,-35.71746z" fill="#fd6400"/><path d="M69.9082,8.51256c18.9438,-1.88049 35.83213,11.93534 37.74258,30.87621c1.91045,18.94087 -11.87856,35.85088 -30.81636,37.7915c-18.98027,1.94473 -35.93657,-11.88193 -37.85142,-30.86528c-1.9147,-18.98335 11.93877,-35.91772 30.9252,-37.80243z" fill="#5233ea"/></g></svg></svg>